<?xml version="1.0" standalone="no"?>
<!DOCTYPE svg PUBLIC "-//W3C//DTD SVG 20010904//EN"
 "http://www.w3.org/TR/2001/REC-SVG-20010904/DTD/svg10.dtd">
<svg version="1.0" xmlns="http://www.w3.org/2000/svg"
 width="512.000000pt" height="512.000000pt" viewBox="0 0 512.000000 512.000000"
 preserveAspectRatio="xMidYMid meet">
<metadata>
Created by potrace 1.15, written by Peter Selinger 2001-2017
</metadata>
<g transform="translate(0.000000,512.000000) scale(0.100000,-0.100000)"
fill="#000000" stroke="none">
<path d="M0 2560 l0 -2560 2560 0 2560 0 0 2560 0 2560 -2560 0 -2560 0 0
-2560z m1910 1435 l0 -155 170 0 170 0 0 -485 0 -485 -170 0 -170 0 0 -310 0
-310 170 0 170 0 0 -640 0 -640 -170 0 -170 0 0 480 0 480 -160 0 -160 0 0
315 0 315 -155 0 -155 0 0 -795 0 -795 -155 0 -155 0 0 1590 0 1590 470 0 470
0 0 -155z m1930 0 l0 -155 155 0 155 0 0 -485 0 -485 -155 0 -155 0 0 -310 0
-310 155 0 155 0 0 -640 0 -640 -155 0 -155 0 0 480 0 480 -155 0 -155 0 0
315 0 315 -170 0 -170 0 0 -795 0 -795 -160 0 -160 0 0 1590 0 1590 485 0 485
0 0 -155z"/>
<path d="M1280 3355 l0 -485 315 0 315 0 0 485 0 485 -315 0 -315 0 0 -485z"/>
<path d="M3190 3355 l0 -485 325 0 325 0 0 485 0 485 -325 0 -325 0 0 -485z"/>
</g>
</svg>
